<svg xmlns:xlink="http://www.w3.org/1999/xlink" width="190" height="71" viewBox="0 0 190 71" fill="none" xmlns="http://www.w3.org/2000/svg">
    <g clip-path="url(#clip0)">
        <path d="M95.1996 28.377H94.7282C90.8207 28.377 87.6523 31.464 87.6523 35.2712V35.7305C87.6523 39.5377 90.8207 42.6248 94.7282 42.6248H95.1996C99.1071 42.6248 102.275 39.5377 102.275 35.7305V35.2712C102.275 31.464 99.1071 28.377 95.1996 28.377Z"
              fill="#CACACA"/>
        <path d="M80.0611 56.5259H79.9439C76.0364 56.5259 72.8681 59.613 72.8681 63.4202V63.8794C72.8681 67.6866 69.6997 70.7737 65.7922 70.7737H58.2449H43.6246H29.0071H21.4599C17.5524 70.7737 14.384 67.6866 14.384 63.8794V63.4202C14.384 59.613 11.2156 56.5259 7.3081 56.5259H7.07103C3.16912 56.5259 0.000732422 53.4388 0.000732422 49.6316V42.509V42.2781V28.4922V28.2639V21.1414C0.000732422 17.3342 3.16912 14.2471 7.07661 14.2471H7.31368C11.2212 14.2471 14.3896 11.16 14.3896 7.35281V7.12182C14.3896 3.31461 17.5579 0.227539 21.4654 0.227539H29.0071H43.6274H58.2477H65.795C69.655 0.227539 72.9378 3.23852 72.8708 6.99954C72.8039 10.8611 75.9946 14.0134 79.9439 14.0134H80.0611C83.143 14.0134 85.9934 15.864 86.9612 18.7147C88.6458 23.6714 84.9029 28.2585 80.0611 28.2585H79.4726C75.526 28.2585 72.313 25.1171 72.3995 21.2718C72.4832 17.4972 69.1948 14.4726 65.3236 14.4726H58.2477H43.6274H29.0071H21.6969C17.7894 14.4726 14.6211 17.5597 14.6211 21.3669V28.2639V28.4949V42.2808V42.5118V49.6343C14.6211 53.4415 17.7894 56.5286 21.6969 56.5286H29.0071H43.6274H58.2477H65.3236C69.2311 56.5286 72.3995 53.4415 72.3995 49.6343V49.1751C72.3995 45.3678 75.5679 42.2808 79.4754 42.2808H80.0639C84.1024 42.2808 87.374 45.4711 87.374 49.4033C87.374 53.3355 84.0996 56.5259 80.0611 56.5259Z"
              fill="#CACACA"/>
        <path d="M182.454 28.262H182.925C186.833 28.262 189.999 25.1749 189.999 21.3704V20.9111C189.999 17.1039 186.83 14.0196 182.925 14.0196H182.454C178.547 14.0196 175.381 10.9325 175.381 7.12799V6.89972C175.381 3.08708 172.213 0 168.308 0H160.764H146.143H131.523H123.978C120.071 0 116.905 3.08708 116.905 6.89157V7.11984C116.905 10.9271 113.737 14.0114 109.832 14.0114H109.361C105.453 14.0114 102.288 17.0985 102.288 20.903V21.0171V21.3622V21.4764C102.288 25.2836 105.456 28.3679 109.361 28.3679H109.832C113.74 28.3679 116.905 31.455 116.905 35.2595V35.4905V35.6046C116.905 39.4118 120.074 42.4962 123.978 42.4962H131.526H146.146H160.766H168.314C172.221 42.4962 175.389 45.5833 175.389 49.3905V49.6188V49.847C175.389 53.6542 172.221 56.7386 168.314 56.7386H160.769H146.149H131.528H123.984C120.077 56.7386 116.908 53.6515 116.908 49.847V49.616C116.908 45.8088 113.74 42.7245 109.835 42.7245H109.364C105.456 42.7245 102.291 45.8115 102.291 49.616V50.0753C102.291 53.8825 105.459 56.9696 109.364 56.9696H109.835C113.743 56.9696 116.908 60.0539 116.908 63.8612V64.0894C116.908 67.8966 120.077 70.9837 123.981 70.9837H131.526H146.146H160.766H168.311C172.218 70.9837 175.384 67.8966 175.384 64.0894V63.8612C175.384 60.0539 178.552 56.9696 182.457 56.9696H182.928C186.836 56.9696 190.001 53.8825 190.001 50.0753V49.616V49.1568C190.001 45.3496 186.833 42.2652 182.928 42.2652H182.457C178.549 42.2652 175.384 39.1781 175.384 35.3736V35.1427V35.0285C175.384 31.2213 172.215 28.137 168.311 28.137H160.764H146.143H131.523H123.976C120.068 28.137 116.9 25.0499 116.9 21.2427V21.1285C116.9 17.3213 120.068 14.2342 123.976 14.2342H131.52H146.14H160.761H168.305C172.213 14.2342 175.381 17.3213 175.381 21.1285V21.3568C175.381 25.1749 178.549 28.262 182.454 28.262Z"
              fill="#CACACA"/>
    </g>
    <defs>
        <clipPath id="clip0">
            <rect width="190" height="71" fill="white"/>
        </clipPath>
    </defs>
</svg>
