<svg xmlns="http://www.w3.org/2000/svg" viewBox="0 0 593.97333 215.39999"><g fill="#3f4e5d"><path d="M83.6 38.53c20.946 0 34.437 14.022 37.633 31.774h15.264c-4.259-24.319-23.786-43.668-52.898-43.668-31.95 0-56.803 25.384-56.803 64.792 0 39.407 24.852 64.79 56.803 64.79 29.112 0 48.639-19.347 52.898-43.667h-15.264c-3.196 17.752-15.09 31.774-37.634 31.774-23.608 0-40.827-20.236-40.827-43.845V82.374c0-23.609 17.219-43.845 40.827-43.845M255.059 75.807h35.857V64.8h-35.857V38.173h-12.427v27.87l-.355.177-12.424-1.419h-17.39l-19.17 51.832-6.924 22.722h-3.196l-7.098-22.01-20.77-52.544H140.04l38.165 89.464-9.23 23.432h-28.402l.177 11.36h12.782c18.105 0 26.981-9.052 33.548-25.028l35.626-88.222h18.508v46.684c0 24.142 10.828 31.065 33.195 31.065h16.685v-11.36H255.06v-66.39M365.997 114.503c0 17.928-11.537 30.356-28.401 30.356-16.864 0-28.401-12.428-28.401-30.178v-11.006c0-17.751 11.537-30.176 28.401-30.176 16.864 0 28.401 12.425 28.401 30.176zM337.596 62.14c-25.739 0-42.957 18.816-42.957 47.04s17.218 47.04 42.957 47.04c25.917 0 42.957-18.816 42.957-47.04s-17.04-47.04-42.957-47.04M425.81 84.86h-2.485V64.8h-39.229v11.006h27.336v67.098h-27.336v10.651h81.121v-10.65h-40.294v-40.473c1.953-18.638 12.781-26.094 30.886-26.094h18.816v-12.78h-17.928c-16.686 0-25.917 7.1-30.886 21.3M539.765 120.54c-.888 13.312-11.538 24.319-27.514 24.319-10.65 0-20.592-4.084-20.592-15.09v-3.372c0-8.52 7.101-13.136 18.994-13.136h29.112zm13.491 24.672v-51.3c0-17.573-12.072-31.773-34.793-31.773-21.478 0-34.614 12.602-36.212 29.11h14.734c.711-9.406 8.342-17.75 21.302-17.75 12.958 0 21.301 7.81 21.301 20.414v8.697h-31.064c-20.059 0-30.356 10.118-30.356 25.562 0 17.928 13.49 28.047 30.533 28.047 14.91 0 25.56-5.504 31.064-16.154h2.13c2.13 11.362 9.762 15.088 20.769 15.088h4.615v-9.941h-14.023"/></g></svg>