<svg xmlns:xlink="http://www.w3.org/1999/xlink" xmlns="http://www.w3.org/2000/svg" class="icon--logo-l3 " role="presentation" width="50"  height="20" ><defs><symbol viewBox="0 0 50 20" id="icon--logo-l3"><title>Logo-L3</title><g transform="translate(-5 -5)" fill="#404040" fill-rule="evenodd"><path d="M12.984 12.346c-2.467-.44-4.11.881-4.11 3.024V24H5v-8.629c0-4.287 2.965-7.281 7.984-6.664v3.639zM38.132 24.08c-4.433.47-6.781-2.2-6.781-6.341V5h3.874v3.991H38v3.435h-2.775v5.343c0 2.114.97 2.906 2.907 2.789v3.522zM21.377 8.611a7.761 7.761 0 1 0 0 15.522 7.761 7.761 0 0 0 0-15.522m0 3.661a4.1 4.1 0 1 1 0 8.2 4.1 4.1 0 0 1 0-8.2M47.239 8.611a7.761 7.761 0 1 0 0 15.522 7.761 7.761 0 0 0 0-15.522m0 3.661a4.1 4.1 0 1 1 0 8.2 4.1 4.1 0 0 1 0-8.2" fill="#404040"></path></g></symbol></defs><use xlink:href="#icon--logo-l3"></use></svg>