<svg xmlns:xlink="http://www.w3.org/1999/xlink" xmlns="http://www.w3.org/2000/svg" width="167" height="23" viewBox="0 0 167 23" fill="none">
<path d="M2.33714 14.6125C3.12346 15.5736 4.30295 16.2944 6.11587 16.2944C7.92879 16.2944 8.71511 15.3989 8.71511 14.7436C8.71511 13.9136 7.77589 13.6952 7.36088 13.6078C6.92404 13.4986 4.76164 13.1054 4.30295 12.9744C1.17949 12.2317 0.611587 10.4406 0.611587 9.26115C0.611587 7.03323 2.62109 4.98004 6.22508 4.98004C8.21274 4.98004 9.65433 5.61347 10.5499 6.2469C11.2051 6.66191 11.6201 7.1206 11.8823 7.42639L9.61065 9.50142C9.23933 8.80246 8.36563 7.51376 6.05034 7.51376C4.56506 7.51376 3.8661 8.16903 3.8661 8.84614C3.8661 9.78537 4.82717 10.0475 6.50903 10.3314C9.23933 10.8338 10.0038 10.9649 10.8338 11.6201C11.6638 12.2536 12.1881 13.302 12.1881 14.416C12.1881 16.4691 10.3533 18.8936 6.29061 18.8936C3.95347 18.8936 1.66002 18.151 0 16.5565L2.33714 14.6125Z" fill="#3C3C3C"/>
<path d="M24.0462 5.39502L20.7261 16.8186L19.9835 19.2868C19.0879 22.0389 18.1269 23 15.6805 23C14.6539 23 14.1516 22.8908 13.8021 22.8471V20.0949C14.086 20.1386 14.3263 20.1823 14.6321 20.1823C14.8724 20.1823 15.5495 20.1823 16.0518 19.8328C16.4232 19.5926 16.7945 19.0247 16.7945 18.7626L12.0547 5.39502H15.4403L18.3453 15.1586L20.8353 5.39502H24.0462Z" fill="#3C3C3C"/>
<path d="M25.9735 14.6125C26.7598 15.5736 27.9393 16.2944 29.7522 16.2944C31.5651 16.2944 32.3515 15.3989 32.3515 14.7436C32.3515 13.9136 31.4122 13.6952 30.9972 13.6078C30.5604 13.4986 28.398 13.1054 27.9393 12.9744C24.8158 12.2317 24.2479 10.4406 24.2479 9.26115C24.2479 7.03323 26.2574 4.98004 29.8614 4.98004C31.8491 4.98004 33.2907 5.61347 34.1862 6.2469C34.8415 6.6619 35.2565 7.1206 35.5186 7.42639L33.2907 9.50141C32.9194 8.80246 32.0238 7.51376 29.7304 7.51376C28.2451 7.51376 27.5461 8.16903 27.5461 8.84614C27.5461 9.78537 28.5072 10.0475 30.1891 10.3314C32.9194 10.8338 33.6839 10.9649 34.5139 11.6201C35.322 12.2536 35.8463 13.302 35.8463 14.3941C35.8463 16.4473 34.0115 18.8718 29.9488 18.8718C27.6117 18.8718 25.3182 18.1292 23.6582 16.5347L25.9735 14.6125Z" fill="#3C3C3C"/>
<path d="M41.3252 7.64482V13.5641C41.3252 15.1804 41.3252 15.9012 42.8105 15.9012C43.2911 15.9012 43.6842 15.8794 44.1211 15.7483V18.3913C43.1819 18.5442 42.5484 18.6097 41.8495 18.6097C41.1942 18.6097 38.9881 18.6097 38.3984 17.0152C38.1799 16.491 38.1799 15.661 38.1799 14.3504V7.64482H36.2578V5.39505H38.1799V0.764465H41.3252V5.39505H44.1211V7.64482H41.3252Z" fill="#3C3C3C"/>
<path d="M57.8382 15.5518C56.2219 17.736 54.125 18.8718 51.4384 18.8718C48.0091 18.8718 44.7109 16.6876 44.7109 11.8822C44.7109 7.49192 47.5504 5.00189 51.2418 5.00189C54.6929 5.00189 56.1345 7.07692 56.3966 7.47008C57.4669 8.99905 57.7072 11.2707 57.729 12.5812H48.0528C48.4241 14.6562 49.7128 15.8357 51.766 15.8357C53.9066 15.8357 54.7803 14.5689 55.1734 14.0228L57.8382 15.5518ZM54.2779 10.2659C53.994 8.21272 52.7271 7.51377 51.351 7.51377C49.6692 7.51377 48.5334 8.47483 48.162 10.2659H54.2779Z" fill="#3C3C3C"/>
<path d="M59.082 5.39506H62.2055V6.8585C63.2539 5.54795 65.1105 5.00189 66.3555 5.00189C67.5787 5.00189 69.1295 5.48242 70.0032 7.01139C70.5274 6.26875 71.8817 5.00189 74.197 5.00189C75.5075 5.00189 76.7744 5.37321 77.6481 6.33428C78.6965 7.49192 78.6747 8.86799 78.6747 10.2441V18.5005H75.5512V11.2707C75.5512 10.0475 75.7259 7.97246 73.3451 7.97246C72.3404 7.97246 71.5322 8.51852 71.1172 9.19563C70.5056 10.1567 70.4401 11.2051 70.4401 12.3409V18.5005H67.3166V11.1833C67.3166 10.2441 67.3166 9.89459 67.2074 9.50142C66.9671 8.62773 66.29 7.95061 65.1979 7.95061C64.2587 7.95061 63.3413 8.49667 62.7952 9.47958C62.2492 10.5062 62.2273 11.7293 62.2273 13.018V18.5005H59.1039V5.39506H59.082Z" fill="#3C3C3C"/>
<path d="M82.1922 14.6125C82.9786 15.5736 84.1581 16.2944 85.971 16.2944C87.7839 16.2944 88.5702 15.3989 88.5702 14.7436C88.5702 13.9136 87.631 13.6952 87.216 13.6078C86.7791 13.4986 84.6167 13.1054 84.1581 12.9744C81.0346 12.2317 80.4667 10.4406 80.4667 9.26115C80.4667 7.03323 82.4762 4.98004 86.0802 4.98004C88.0678 4.98004 89.5094 5.61347 90.405 6.2469C91.0602 6.6619 91.4753 7.1206 91.7374 7.42639L89.5094 9.50141C89.1381 8.80246 88.2426 7.51376 85.9491 7.51376C84.4638 7.51376 83.7649 8.16903 83.7649 8.84614C83.7649 9.78537 84.726 10.0475 86.4078 10.3314C89.1381 10.8338 89.9026 10.9649 90.7326 11.6201C91.5408 12.2536 92.065 13.302 92.065 14.3941C92.065 16.4473 90.2302 18.8718 86.1676 18.8718C83.8304 18.8718 81.537 18.1292 79.877 16.5347L82.1922 14.6125Z" fill="#3C3C3C"/>
<path d="M101.132 14.6125C101.919 15.5736 103.098 16.2944 104.911 16.2944C106.724 16.2944 107.51 15.3989 107.51 14.7436C107.51 13.9136 106.571 13.6952 106.156 13.6078C105.719 13.4986 103.557 13.1054 103.098 12.9744C99.9748 12.2317 99.4069 10.4406 99.4069 9.26115C99.4069 7.03323 101.416 4.98004 105.02 4.98004C107.008 4.98004 108.45 5.61347 109.345 6.2469C110 6.6619 110.415 7.1206 110.678 7.42639L108.45 9.50141C108.035 8.80246 107.161 7.51376 104.846 7.51376C103.36 7.51376 102.661 8.16903 102.661 8.84614C102.661 9.78537 103.622 10.0475 105.304 10.3314C108.035 10.8338 108.799 10.9649 109.629 11.6201C110.437 12.2536 110.961 13.302 110.961 14.3941C110.961 16.4473 109.127 18.8718 105.064 18.8718C102.727 18.8718 100.433 18.1292 98.7734 16.5347L101.132 14.6125Z" fill="#3C3C3C"/>
<path d="M116.351 7.64482V13.5641C116.351 15.1804 116.351 15.9012 117.836 15.9012C118.316 15.9012 118.71 15.8794 119.146 15.7483V18.3913C118.207 18.5442 117.574 18.6097 116.875 18.6097C116.22 18.6097 114.013 18.6097 113.424 17.0152C113.205 16.491 113.205 15.661 113.205 14.3504V7.64482H111.283V5.39505H113.205V0.764465H116.351V5.39505H119.146V7.64482H116.351Z" fill="#3C3C3C"/>
<path d="M132.451 5.39502V18.5004H129.306V17.1681C128.76 17.6923 127.471 18.8281 125.069 18.8281C122.928 18.8281 121.901 17.9107 121.421 17.2991C120.525 16.1633 120.525 14.9401 120.525 12.9743V5.39502H123.693V12.9088C123.693 13.433 123.693 13.8699 123.802 14.2193C124.151 15.377 125.09 15.8794 126.248 15.8794C127.559 15.8794 128.367 15.1804 128.782 14.4815C129.262 13.6078 129.284 12.7777 129.306 10.943V5.39502H132.451Z" fill="#3C3C3C"/>
<path d="M146.364 0V18.5005H143.241V17.2336C142.28 18.4131 140.969 18.8937 139.593 18.8937C136.47 18.8937 133.783 16.5565 133.783 12.2317C133.783 8.32195 135.989 5.00191 139.724 5.00191C141.013 5.00191 142.236 5.37323 143.241 6.46534V0H146.364ZM142.52 9.10827C142.04 8.40932 141.253 7.90694 140.205 7.90694C138.086 7.90694 137.06 9.82907 137.06 11.8823C137.06 12.1225 137.081 16.0541 140.161 16.0541C141.778 16.0541 143.263 14.8528 143.219 12.0133C143.197 11.1833 143.088 9.98197 142.52 9.10827Z" fill="#3C3C3C"/>
<path d="M151.237 0.174744V3.34189H148.113V0.174744H151.237ZM151.237 5.39507V18.5005H148.113V5.39507H151.237Z" fill="#3C3C3C"/>
<path d="M159.6 18.8937C155.515 18.8937 152.785 15.9012 152.785 11.9041C152.785 7.90694 155.559 5.02374 159.469 5.02374C163.117 5.02374 166.218 7.55746 166.262 11.9041C166.262 15.9886 163.553 18.8937 159.6 18.8937ZM159.447 7.84141C157.481 7.84141 156.062 9.41406 156.062 11.8167C156.062 14.5033 157.722 16.0105 159.6 16.0105C161.872 16.0105 163.029 14.0228 162.964 11.8386C162.898 9.67617 161.653 7.84141 159.447 7.84141Z" fill="#3C3C3C"/>
</svg>